<svg width="40" height="40" fill="none" xmlns="http://www.w3.org/2000/svg"><path d="m28.78 3.15.005-.002a4.5 4.5 0 0 1 5.565 3.179v.001l1.666 6.447.003.01.002.01a4.5 4.5 0 0 1-3.165 5.655h-.003l-3.152.85h-.385a1.167 1.167 0 0 1-1.165-.86l-.416-1.661-.123-.493-.49.13-2.25.6-.372.1v3.712a4.65 4.65 0 0 1-.466 1.92l-.156.32.252.252 8.333 8.334h.001a1.168 1.168 0 0 1-1.644 1.659l-.001-.001-8.332-8.332-.252-.253-.321.157a3.44 3.44 0 0 1-.426.176l-.338.116v10.657a1.167 1.167 0 1 1-2.333 0V25.176l-.317-.125-.467-.183-.305-.12-.232.232-8.332 8.332a1.167 1.167 0 0 1-1.645-1.657l.001-.001 8.334-8.334.253-.253-.159-.322a4.333 4.333 0 0 1-.448-1.912v-1.381l-.65.204-5.415 1.706a.747.747 0 0 1-.232-.004l-.04-.008h-.041a1.167 1.167 0 0 1-.583-.163l-.003-.002A1.167 1.167 0 0 1 8 20.488l-.433-1.664-.127-.488-.487.131-1.629.44a1.32 1.32 0 0 1-.281-.003l-.06-.008-.062.008a1.18 1.18 0 1 1-.292-2.341l.032-.004.031-.008 1.667-.434.484-.126-.126-.483-.433-1.667v-.001a1.167 1.167 0 0 1 .827-1.423h.001l17.7-4.684.48-.127-.125-.482-.433-1.666-.002-.006a1.166 1.166 0 0 1 .829-1.435h.002l3.217-.868Zm-6.613 17.685v-3.139l-.62.152-3.266.8-.381.093v2.061c.002.569.228 1.113.628 1.517l.003.003c.404.4.949.626 1.517.628h.004a2.167 2.167 0 0 0 1.495-.607l-.347-.36.36.347c.387-.401.605-.937.607-1.495ZM9.834 18.064l.129.478.48-.125 16.1-4.2.483-.126-.125-.483-.434-1.667-.433-1.667-.127-.487-.486.13-16.1 4.317-.484.13.13.483.867 3.217Zm22.392-2.03h.003a2.167 2.167 0 0 0 1.32-1.016 2.166 2.166 0 0 0 .217-1.682l-1.665-6.444v-.003a2.167 2.167 0 0 0-2.663-1.539l-1.664.433-.484.126.126.484.432 1.661.001.005.8 3.212h-.001l.003.009 1.3 4.833.128.48.48-.126 1.667-.433Z" fill="#fff" stroke="#fff"/></svg>