<svg width="38" height="38" fill="none" xmlns="http://www.w3.org/2000/svg"><path d="m16.247 9.809 1.215-1.23v7.059a1.538 1.538 0 1 0 3.076 0v-7.06l1.215 1.23a1.538 1.538 0 0 0 2.184 0 1.54 1.54 0 0 0 0-2.183l-3.845-3.846a1.537 1.537 0 0 0-.508-.323 1.538 1.538 0 0 0-1.168 0 1.539 1.539 0 0 0-.508.323l-3.845 3.846a1.544 1.544 0 0 0 2.184 2.184Zm11.982 2.076a1.567 1.567 0 0 0-2.555 1.707c.079.19.194.362.34.508a9.92 9.92 0 1 1-14.028 0 1.565 1.565 0 1 0-2.215-2.215 13.012 13.012 0 1 0 18.458 0Z" fill="#fff"/></svg>