<svg width="52" height="50" fill="none" xmlns="http://www.w3.org/2000/svg"><path d="M44.26 32.538a7.13 7.13 0 0 1-3.173-2.591 6.879 6.879 0 0 1-1.177-3.872 7.095 7.095 0 0 1 .978-3.496 7.313 7.313 0 0 1 2.595-2.593c.243-.147.454-.34.618-.569a2.019 2.019 0 0 0 .016-2.355 11.691 11.691 0 0 0-3.697-3.377 12 12 0 0 0-4.806-1.554 13.024 13.024 0 0 0 2.043-8.219 2.019 2.019 0 0 0-.714-1.351 2.116 2.116 0 0 0-1.474-.491c-3.635.316-7.006 1.99-9.408 4.672a14.022 14.022 0 0 0-3.132 5.992 11.39 11.39 0 0 0-3.43-.573c-2.161.06-4.27.664-6.121 1.753a12.388 12.388 0 0 0-4.447 4.464C4.935 25.15 7.38 35.3 11.71 41.41c1.737 2.448 4.343 6.123 8.275 6.123.078 0 .156 0 .235-.004a10.23 10.23 0 0 0 3.795-.959 7.05 7.05 0 0 1 3.06-.73c1 .012 1.985.25 2.874.698 1.3.6 2.717.922 4.154.942 4.051-.074 6.443-3.485 8.19-5.978a24.646 24.646 0 0 0 3.203-6.424 2.028 2.028 0 0 0-.108-1.506 2.105 2.105 0 0 0-1.127-1.035ZM29.267 9.441a10.473 10.473 0 0 1 4.064-2.733 9.937 9.937 0 0 1-2.195 4.446 9.25 9.25 0 0 1-2.676 2.15l-.007.002-.18.07c-.394.152-.882.34-1.259.46a9.884 9.884 0 0 1 2.253-4.395Zm9.531 29.73c-1.702 2.425-3.04 4.147-4.773 4.177a5.107 5.107 0 0 1-2.395-.603 10.736 10.736 0 0 0-4.556-1.038c-1.633.008-3.245.37-4.718 1.06a6.224 6.224 0 0 1-2.3.634h-.062c-1.722 0-3.573-2.61-4.803-4.344-3.075-4.34-5.912-12.986-2.59-18.617a8.186 8.186 0 0 1 2.926-2.967 8.442 8.442 0 0 1 4.042-1.178l.071-.002c1.205.1 2.382.41 3.475.918.278.107.552.214.824.313.069.028.14.054.213.076a7.165 7.165 0 0 0 2.365.491 9.571 9.571 0 0 0 3.312-.87 10.708 10.708 0 0 1 4.706-1.027 8.133 8.133 0 0 1 4.765 1.764 10.982 10.982 0 0 0-2.696 3.703 10.75 10.75 0 0 0-.929 4.45v.003a10.746 10.746 0 0 0 1.366 5.306 11.065 11.065 0 0 0 3.824 4 20.924 20.924 0 0 1-2.067 3.75Z" fill="#fff"/></svg>