<svg width="37" height="36" fill="none" xmlns="http://www.w3.org/2000/svg"><g filter="url(#Vector__a)"><path d="m21.731 18 9.854-9.653c.432-.423.674-.998.674-1.597 0-.6-.242-1.174-.674-1.598a2.323 2.323 0 0 0-1.627-.661c-.61 0-1.195.238-1.627.661L18.5 14.827 8.669 5.152a2.323 2.323 0 0 0-1.627-.661c-.61 0-1.196.238-1.627.661A2.239 2.239 0 0 0 4.74 6.75c0 .6.242 1.174.674 1.597L15.269 18l-9.854 9.652c-.215.21-.386.458-.502.733a2.215 2.215 0 0 0 .502 2.462c.213.211.466.379.745.493a2.329 2.329 0 0 0 2.509-.492l9.831-9.675 9.831 9.675a2.33 2.33 0 0 0 3.254 0 2.216 2.216 0 0 0 0-3.195L21.731 18Z" fill="#fff"/></g><defs><filter id="Vector__a" x=".737" y=".491" width="35.527" height="35.022" filterUnits="userSpaceOnUse" color-interpolation-filters="sRGB"><feFlood flood-opacity="0" result="BackgroundImageFix"/><feColorMatrix in="SourceAlpha" values="0 0 0 0 0 0 0 0 0 0 0 0 0 0 0 0 0 0 127 0" result="hardAlpha"/><feOffset/><feGaussianBlur stdDeviation="2"/><feComposite in2="hardAlpha" operator="out"/><feColorMatrix values="0 0 0 0 0 0 0 0 0 0 0 0 0 0 0 0 0 0 0.25 0"/><feBlend in2="BackgroundImageFix" result="effect1_dropShadow_406_28"/><feBlend in="SourceGraphic" in2="effect1_dropShadow_406_28" result="shape"/></filter></defs></svg>