<svg width="51" height="50" fill="none" xmlns="http://www.w3.org/2000/svg"><path d="M25.565 4.643c-5.028 0-9.891 1.747-13.72 4.927-3.83 3.18-6.375 7.587-7.18 12.431A20.258 20.258 0 0 0 7.449 36.01c2.602 4.199 6.65 7.357 11.42 8.91 1.058.18 1.455-.44 1.455-.983 0-.49-.026-2.118-.026-3.849-5.32.956-6.696-1.266-7.12-2.428a7.526 7.526 0 0 0-2.17-2.92c-.74-.387-1.8-1.343-.026-1.369a4.302 4.302 0 0 1 1.893.67 4.177 4.177 0 0 1 1.362 1.449c.29.507.679.954 1.146 1.315.467.36 1.002.628 1.575.786a4.633 4.633 0 0 0 3.446-.396 4.307 4.307 0 0 1 1.35-2.764c-4.712-.517-9.634-2.3-9.634-10.205a7.936 7.936 0 0 1 2.17-5.554 7.263 7.263 0 0 1 .212-5.477s1.773-.543 5.822 2.118c3.465-.93 7.122-.93 10.587 0 4.05-2.687 5.822-2.118 5.822-2.118a7.262 7.262 0 0 1 .212 5.477 7.89 7.89 0 0 1 2.17 5.554c0 7.931-4.949 9.688-9.66 10.205.506.5.895 1.1 1.141 1.76.247.66.345 1.363.288 2.063 0 2.764-.026 4.986-.026 5.684 0 .542.397 1.188 1.456.981 4.76-1.564 8.797-4.73 11.389-8.931a20.266 20.266 0 0 0 2.757-14.004c-.81-4.84-3.357-9.24-7.185-12.417-3.827-3.176-8.686-4.921-13.71-4.924Z" fill="#fff"/></svg>