<svg width="52" height="50" fill="none" xmlns="http://www.w3.org/2000/svg"><path d="M48.08 20.676a2.057 2.057 0 0 0-.726-1.219 2.152 2.152 0 0 0-1.358-.48H26.054a2.16 2.16 0 0 0-1.497.604 2.038 2.038 0 0 0-.619 1.462v7.995a2.028 2.028 0 0 0 .62 1.461 2.121 2.121 0 0 0 1.496.605h8.39a7.63 7.63 0 0 1-2.396 2.455 10.912 10.912 0 0 1-5.994 1.622 10.618 10.618 0 0 1-6.095-2 10.212 10.212 0 0 1-3.742-5.105v-.003a9.906 9.906 0 0 1 0-6.546v-.003a10.213 10.213 0 0 1 3.742-5.104 10.62 10.62 0 0 1 6.096-2 9.472 9.472 0 0 1 3.572.614 9.299 9.299 0 0 1 3.058 1.904c.4.373.933.578 1.487.572a2.145 2.145 0 0 0 1.473-.605l6.073-5.927c.201-.197.36-.43.467-.688a2.021 2.021 0 0 0-.03-1.615 2.066 2.066 0 0 0-.49-.67c-4.226-3.868-9.818-5.995-15.61-5.938A23.608 23.608 0 0 0 13.82 5.433a22.841 22.841 0 0 0-8.577 9.156l-.003.003a22.134 22.134 0 0 0-2.477 10.209A22.451 22.451 0 0 0 5.241 35.01l.003.003a22.841 22.841 0 0 0 8.577 9.157 23.607 23.607 0 0 0 12.234 3.365c5.685.14 11.21-1.846 15.445-5.553l.001-.001.002-.002a22.276 22.276 0 0 0 5.308-7.632 21.822 21.822 0 0 0 1.687-9.076 25.216 25.216 0 0 0-.419-4.595ZM26.054 6.2a18.69 18.69 0 0 1 11.028 3.458l-3.078 3.003a13.922 13.922 0 0 0-7.95-2.374 14.85 14.85 0 0 0-7.361 1.99 14.397 14.397 0 0 0-5.32 5.349l-2.265-1.713-1.238-.938a18.767 18.767 0 0 1 6.92-6.447A19.32 19.32 0 0 1 26.055 6.2ZM8.014 30.802a18.24 18.24 0 0 1 0-12.001l3.773 2.856a13.837 13.837 0 0 0 0 6.287l-3.773 2.858Zm18.04 12.6a19.32 19.32 0 0 1-9.264-2.328 18.767 18.767 0 0 1-6.92-6.448l.802-.606 2.701-2.046a14.394 14.394 0 0 0 5.32 5.35 14.848 14.848 0 0 0 7.361 1.99 15.72 15.72 0 0 0 7-1.551l3.582 2.714c-3.15 1.982-6.835 3-10.582 2.925Zm13.818-5.706-.388-.293-2.916-2.21a11.486 11.486 0 0 0 2.964-5.778 2.018 2.018 0 0 0-.033-.899 2.049 2.049 0 0 0-.42-.8 2.112 2.112 0 0 0-.73-.55 2.161 2.161 0 0 0-.9-.195h-9.277V23.11h15.983c.072.714.109 1.437.109 2.161.123 4.524-1.437 8.938-4.392 12.425Z" fill="#fff"/></svg>