<svg width="52" height="50" fill="none" xmlns="http://www.w3.org/2000/svg"><path d="M49.214 8.164c0-.365-.099-.724-.286-1.04a2.093 2.093 0 0 0-.784-.757 2.156 2.156 0 0 0-2.129.021 16.049 16.049 0 0 1-3.965 1.639 11.07 11.07 0 0 0-7.144-2.567 11.222 11.222 0 0 0-7.698 3.049 10.697 10.697 0 0 0-3.362 7.416c-5.666-.882-10.802-3.77-14.427-8.11a2.138 2.138 0 0 0-.813-.594 2.149 2.149 0 0 0-1.964.155c-.29.18-.53.426-.7.717a10.676 10.676 0 0 0-.513 9.855l-.004.005a2.175 2.175 0 0 0-.77.785c-.184.321-.28.683-.279 1.052a6.14 6.14 0 0 0 .056.908 10.614 10.614 0 0 0 3.32 6.846 2.026 2.026 0 0 0-.14 1.59 10.812 10.812 0 0 0 5.002 6.04 16.162 16.162 0 0 1-7.601.925 2.16 2.16 0 0 0-1.368.288c-.41.245-.722.618-.885 1.058a2.02 2.02 0 0 0-.016 1.366c.154.444.457.824.861 1.077a27.893 27.893 0 0 0 14.842 4.26c5.97.066 11.793-1.796 16.566-5.296s8.228-8.44 9.826-14.055a25.913 25.913 0 0 0 1.133-7.536c0-.136 0-.275-.002-.414a11.879 11.879 0 0 0 2.519-4.022c.557-1.491.803-3.076.725-4.66Zm-7.001 6.638c-.35.404-.527.924-.494 1.451.02.341.018.685.018 1.008a21.877 21.877 0 0 1-.961 6.367c-1.306 4.777-4.215 8.989-8.264 11.96a22.997 22.997 0 0 1-14.065 4.427c-1.82 0-3.632-.208-5.4-.621a20.24 20.24 0 0 0 6.23-3.232c.343-.264.594-.625.719-1.034a2.02 2.02 0 0 0-.023-1.25 2.07 2.07 0 0 0-.757-1.009 2.153 2.153 0 0 0-1.214-.398 6.876 6.876 0 0 1-4.687-1.932c.316-.058.63-.131.943-.218.457-.127.857-.4 1.136-.777a2.032 2.032 0 0 0-.108-2.556 2.13 2.13 0 0 0-1.198-.683 6.85 6.85 0 0 1-2.809-1.24 6.645 6.645 0 0 1-1.955-2.327c.383.051.768.083 1.154.095.459.007.907-.129 1.282-.387.374-.26.654-.627.8-1.052a2.02 2.02 0 0 0-.02-1.313 2.075 2.075 0 0 0-.828-1.036 6.664 6.664 0 0 1-2.22-2.392 6.479 6.479 0 0 1-.782-3.542c4.746 4.32 10.9 6.867 17.381 7.191.327.013.653-.047.953-.176a2.05 2.05 0 0 0 1.212-1.412 2.02 2.02 0 0 0 .002-.947 6.371 6.371 0 0 1-.184-1.505 6.596 6.596 0 0 1 2.003-4.714 6.924 6.924 0 0 1 4.829-1.955 6.884 6.884 0 0 1 2.708.547 6.743 6.743 0 0 1 2.256 1.562c.244.257.552.448.893.556.341.107.705.128 1.057.06a20.03 20.03 0 0 0 2.566-.666 13.79 13.79 0 0 1-2.173 3.15Z" fill="#fff"/></svg>